<svg xmlns="http://www.w3.org/2000/svg" width="258" height="39" viewBox="0 0 258 39" fill="none"><g clip-path="url(#clip0_422_1325)"><mask id="mask0_422_1325" style="mask-type:luminance" maskUnits="userSpaceOnUse" x="0" y="0" width="258" height="39"><path d="M258 0H0V39H258V0Z" fill="white"></path></mask><g mask="url(#mask0_422_1325)"><path d="M174.133 31.7523C174.428 31.3975 174.705 31.0335 174.968 30.6604C177.214 27.4984 178.528 23.6493 178.528 19.4954C178.528 15.3416 177.214 11.4925 174.968 8.33049C172.804 8.9993 170.908 10.2687 169.478 11.9339C171.024 14.0631 171.937 16.6746 171.937 19.4954C171.937 22.3163 171.024 24.9278 169.478 27.057C169.216 27.4165 168.939 27.7623 168.644 28.0898C167.177 29.7323 165.29 31.0062 163.154 31.7523C162.712 31.9116 162.255 32.039 161.789 32.1482C160.816 32.3756 159.801 32.4939 158.759 32.4939C151.48 32.4939 145.58 26.6749 145.58 19.4954C145.58 12.316 151.48 6.49697 158.759 6.49697C159.801 6.49697 160.816 6.61526 161.789 6.84274C163.307 4.89092 165.17 3.21664 167.283 1.89722C164.704 0.682455 161.817 0 158.763 0C147.845 0 138.993 8.73087 138.993 19.5C138.993 30.2691 147.845 39 158.763 39H176.227V32.4985H173.496C173.717 32.2574 173.93 32.0071 174.137 31.7569L174.133 31.7523Z" fill="#A37CF0"></path><path d="M178.533 0C175.479 0 172.587 0.682454 170.009 1.90177C169.543 2.12016 169.091 2.35674 168.648 2.61153C166.54 3.81265 164.677 5.38684 163.159 7.24312C162.864 7.59799 162.587 7.96197 162.324 8.33504C160.078 11.4971 158.763 15.3461 158.763 19.5C158.763 23.6539 160.078 27.5029 162.324 30.665C164.488 29.9962 166.383 28.7268 167.813 27.0616C166.268 24.9323 165.355 22.3208 165.355 19.5C165.355 16.6792 166.268 14.0677 167.813 11.9384C168.076 11.579 168.353 11.2332 168.648 10.9056C170.115 9.26318 172.002 7.98927 174.137 7.24312C174.58 7.08388 175.037 6.95649 175.503 6.84729C176.476 6.61981 177.491 6.50152 178.533 6.50152C185.812 6.50152 191.711 12.3206 191.711 19.5C191.711 26.6794 185.812 32.4985 178.533 32.4985V39C189.451 39 198.303 30.2691 198.303 19.5C198.303 8.73087 189.447 0 178.533 0Z" fill="#A37CF0"></path><path d="M223.271 6.59706C221.251 4.34041 218.82 2.65247 216.191 1.55145C215.716 1.35126 215.236 1.17382 214.752 1.01458C212.842 0.382174 210.845 0.045497 208.843 0.00909939C208.806 0.00909939 208.769 0.00909939 208.728 0.00909939L202.251 0V38.9955H208.455C208.543 38.9955 208.635 38.9955 208.728 38.9955C208.769 38.9955 208.806 38.9955 208.843 38.9955C213.363 38.909 217.87 37.303 221.528 34.1227C229.715 26.9979 230.499 14.6773 223.276 6.60161L223.271 6.59706ZM217.169 29.2455C214.766 31.3338 211.809 32.4075 208.843 32.4939C208.806 32.4939 208.769 32.4939 208.728 32.4939V6.50607C208.769 6.50607 208.806 6.50607 208.843 6.50607C210.932 6.56521 212.999 7.11573 214.862 8.13941C215.278 8.36234 215.679 8.61258 216.066 8.88556C216.883 9.45427 217.644 10.1276 218.336 10.8965C223.147 16.2788 222.625 24.4956 217.169 29.2455Z" fill="#A37CF0"></path><path d="M258 0H232.169V6.50152H258V0Z" fill="#A37CF0"></path><path d="M258 16.247H232.169V22.7485H258V16.247Z" fill="#A37CF0"></path><path d="M258 32.4985H232.169V39H258V32.4985Z" fill="#A37CF0"></path><path d="M6.59149 0H0V38.9955H6.59149V0Z" fill="#F1F2F2"></path><path d="M75.1633 6.50152V0H49.3324V6.50152V16.247V22.7485V39H55.9239V22.7485H75.1633V16.247H55.9239V6.50152H75.1633Z" fill="#F1F2F2"></path><path d="M238.761 0H232.169V38.9955H238.761V0Z" fill="#A37CF0"></path><path d="M85.7079 0H79.1164V38.9955H85.7079V0Z" fill="#F1F2F2"></path><path d="M135.04 0H128.449V38.9955H135.04V0Z" fill="#F1F2F2"></path><path d="M117.909 0V28.2354L96.2524 0H89.6609V38.9954H96.2524V10.7737L117.904 39L117.909 38.9954H124.496V0H117.909Z" fill="#F1F2F2"></path><path d="M38.7925 0V28.2354L17.1314 0H10.5445V38.9954H17.1314V10.7737L38.7879 39L38.7925 38.9954H45.3794V0H38.7925Z" fill="#F1F2F2"></path></g></g><defs><clipPath id="clip0_422_1325"><rect width="258" height="39" fill="white"></rect></clipPath></defs></svg>